PathFileType	4	(X/Y/Z)	statics_05.trc	
DataRate	CameraRate	NumFrames	NumMarkers	Units	OrigDataRate	OrigDataStartFrame	OrigNumFrames	
150.00	150.00	6	26	mm	150.00	1	720	
Frame#	Time	FT1			FT2			FT3			FT4			FT5			DP2			DP3			DP4			DP5			PP2			PP3			PP4			PP5			IP			MP1			MP2			MP3			MP4			MP5			CMC1			CMC2			CMC5			RS			US			EM			EL			
		X1	Y1	Z1	X2	Y2	Z2	X3	Y3	Z3	X4	Y4	Z4	X5	Y5	Z5	X6	Y6	Z6	X7	Y7	Z7	X8	Y8	Z8	X9	Y9	Z9	X10	Y10	Z10	X11	Y11	Z11	X12	Y12	Z12	X13	Y13	Z13	X14	Y14	Z14	X15	Y15	Z15	X16	Y16	Z16	X17	Y17	Z17	X18	Y18	Z18	X19	Y19	Z19	X20	Y20	Z20	X21	Y21	Z21	X22	Y22	Z22	X23	Y23	Z23	X24	Y24	Z24	X25	Y25	Z25	X26	Y26	Z26	

1	0.0	410.81985345104266	141.705994556057	-175.791348088641	432.9101540281237	139.2686692765781	-274.32366166023036	470.3901583524974	139.66426228899206	-296.32437242944854	500.8235059621007	136.02158926907376	-295.5282967956812	537.7359498758941	135.66562024611363	-279.24117403115577	439.81652289661434	150.65571206033133	-257.9984871280052	474.43441618967125	149.72866554650807	-278.6211505331835	507.50387258052797	144.81927904632684	-278.2354361952283	543.001252895139	140.63776745113248	-261.5962768164667	450.565614987058	164.38518124695685	-235.03258374301026	480.07646731266084	166.07351161606448	-250.75367612194765	511.4097712054541	159.98331540562907	-251.3116712789453	545.3318420390308	146.65789998980924	-241.74124355482323	428.1517638180462	141.82307831392862	-161.67571144867685	450.22208227273234	147.86511645038908	-138.59864466657754	472.45765997586244	173.9301595031143	-192.97248067494274	500.13389734373163	175.9035886027146	-203.9384672120337	520.1792671362188	166.80648904515868	-205.7899222230142	542.1711215183597	153.30658846666904	-208.3700127957308	483.5529442466148	150.01135502018445	-118.25314698481881	501.0275084721024	175.88042418809442	-157.3292800790364	538.2055308205171	165.84520552627177	-171.71230758864215	523.7133038004168	169.0387991191929	-98.25824719841732	565.5211532866471	168.81393139457955	-126.41513807610553	673.6944746514682	45.376597941148866	105.69666780309477	726.267596594827	96.68701421162108	81.24293813241796	
2	0.00667	410.8499882751147	141.70476392573008	-175.76863887463924	432.94881986054145	139.27887390457903	-274.2887418768536	470.4116293342362	139.65892917335754	-296.24109014954485	500.85549704499715	136.04001653081548	-295.4895044512116	537.764236283352	135.69421416128736	-279.19485604911915	439.8486202486698	150.6720882469188	-257.96082378609464	474.4817143812144	149.7372107030181	-278.5514258379222	507.54275076586777	144.8779952790373	-278.2027868482657	543.0252479722508	140.67053766206803	-261.54870576241046	450.61468293228364	164.3946036843174	-234.96893530107695	480.09413054698405	166.09351656611636	-250.71150001329306	511.4560349640871	159.99462120925355	-251.2328767427848	545.3527161277493	146.6911349196489	-241.69304251813674	428.30876150356534	141.79741902076321	-161.46970690713408	450.2620046814685	147.86574497965998	-138.5697888300306	472.46877428446396	173.93137712188724	-192.88688766365988	500.09213271182364	175.86465048271364	-203.80672724959544	520.1894112278533	166.81980650278058	-205.74203938280326	542.1907330616451	153.3342514125235	-208.324404320415	483.5870225608544	150.02433235709347	-118.21521295162512	501.0447255558398	175.9013358187007	-157.28783860237493	538.2303969420577	165.93505472978404	-171.6849887038166	523.7302964107921	169.0604342664743	-98.209846600735	565.5409159684457	168.84314237911346	-126.36858409106156	673.6121095699583	45.46468256496679	105.82296924469857	726.2769480425379	96.70360123251406	81.26230824063177	
3	0.01333	410.88126884688984	141.7015320123351	-175.74520814566458	432.9876274623707	139.28595231309905	-274.25325677183815	470.4332546999897	139.64978402906584	-296.15790966389386	500.88650519245107	136.0540843039663	-295.4509819742353	537.7915587772477	135.71892205197804	-279.14892806235815	439.88055142817785	150.68504782008898	-257.9227318823063	474.5281280249362	149.74215771274933	-278.48277860594555	507.5804242092419	144.93206088869823	-278.1704605186005	543.0484528735507	140.69941648625627	-261.50154537609933	450.6625643715939	164.4010602550872	-234.90642337342896	480.11229128004163	166.10937130241368	-250.66867275708302	511.50089397869453	160.0028974613413	-251.1557932858882	545.3730576421456	146.7207407790845	-241.6456368387586	428.4632595663542	141.77052354618954	-161.26731693799283	450.3022565764442	147.86483100525984	-138.54059621109224	472.4797453542327	173.93053022210034	-192.8036652394704	500.0509958227596	175.8244727644248	-203.67862521932867	520.1991344423716	166.83019124212086	-205.69514843984274	542.2099506636052	153.35895514810366	-208.279834440556	483.62218353648063	150.03451945065405	-118.17733383605099	501.06219763082174	175.92009258619237	-157.24589417335895	538.2537202591418	166.01750401469948	-171.6551179653044	523.7474269136054	169.0805241018877	-98.16153491442581	565.5606606545231	168.86951072546282	-126.32168426814935	673.5402233578745	45.5450372809607	105.93331671852093	726.2867798470047	96.71960277254622	81.28061279980224	
4	0.02	410.9144635107832	141.69380577487786	-175.71969920335937	433.0264880968547	139.2863774580959	-274.21621520842973	470.4555696608229	139.63318151504976	-296.0754195369666	500.91569922127275	136.05931831403518	-295.4125094899414	537.8171859892499	135.73588253663354	-279.1033746752683	439.91202562517196	150.69086919967296	-257.8834400295387	474.57234007831954	149.73989441886903	-278.4165084837863	507.6154941648804	144.97569610227552	-278.1381115858762	543.0702079152629	140.72061528832276	-261.4548244145593	450.7075081502248	164.4014291271061	-234.8462826422056	480.13149128747466	166.1167181470456	-250.62410669073458	511.542544472564	160.00512328771	-251.0824807239074	545.3924091817836	146.74310144030542	-241.59935442794335	428.60976575037876	141.74144249207046	-161.07547477777757	450.34264528035294	147.86055178422808	-138.51010598332252	472.49040428903726	173.92555042772014	-192.72569366531079	500.0123243173068	175.78287142447084	-203.55906625476547	520.2081939688239	166.83478791560094	-205.64986768085413	542.2282291499091	153.37771550048507	-208.23674332613473	483.65896577733713	150.03914598681087	-118.13914928130636	501.0799411073254	175.93435314332234	-157.20254162931698	538.2741878855247	166.08500944415118	-171.62036358460668	523.7647615913555	169.09745166091366	-98.11293093251336	565.5801394329736	168.89028825116029	-126.27373387553895	673.4851860356324	45.61317567468291	106.01938061019395	726.2972532442377	96.73481953186509	81.29792422572908	
5	0.02667	410.94951025993043	141.679453640361	-175.6904809425053	433.0648272527904	139.27745952163698	-274.176573784633	470.47918359463716	139.60672119189772	-295.9948743072473	500.94243216300794	136.05230830740706	-295.37351040373045	537.8405935648889	135.74227565330472	-279.05800357863	439.9425133487469	150.68668911830852	-257.84217865264003	474.6126435251299	149.72781531615485	-278.3540139691486	507.64657011802774	145.00342155580978	-278.1049051437079	543.0900211747473	140.73133704534808	-261.4083572474729	450.7474768424048	164.39339055110048	-234.7896994215557	480.15202387024806	166.1122569264017	-250.57680408225391	511.5790306289804	159.99915385708613	-251.0149787872259	545.4104192704103	146.75539342989538	-241.55416227250106	428.74055876747536	141.7101230042987	-160.90327002868864	450.3822199076937	147.85147289770288	-138.47709013721814	472.5005731712672	173.9151344561209	-192.6557194671809	499.9787835993346	175.74095564129254	-203.45334997795828	520.2164838047266	166.83151984642637	-205.60629133518808	542.2449221070304	153.38822515333075	-208.19494335110335	483.69687934155104	150.03612850731156	-118.10011172541506	501.09779652600594	175.942184557673	-157.15673108818038	538.290913343654	166.13140107829835	-171.5794351017202	523.7821905906466	169.10995629354355	-98.06347373447093	565.5987714416398	168.90344292652858	-126.22400262855567	673.4481926450823	45.667062236760636	106.082365345604	726.3079476533663	96.74915943113302	81.31582063724417	
6	0.03333	410.9849573105591	141.65694114005694	-175.6562838173457	433.10122576025424	139.2576529359977	-274.13387854479265	470.503898156025	139.56892534165215	-295.9176868534405	500.9663004850709	136.0308904489808	-295.3332880562868	537.8614868964652	135.73644751378106	-279.0125807981463	439.9709625546055	150.6707730751881	-257.7986827982834	474.647487854676	149.70404869511705	-278.2959982146187	507.672748513402	145.0115426715023	-278.0699249538644	543.1076231962514	140.72976655931316	-261.3618294570135	450.7808703273196	164.37530393397435	-234.73710429726688	480.17321364483445	166.0941398669284	-250.52684520327122	511.60892954312027	159.98352389344603	-250.95416977340625	545.4268407001512	146.75570778249812	-241.5097495132136	428.84938292823745	141.67662188099146	-160.75699597372352	450.419392343734	147.8365053554661	-138.4407433804041	472.50999555674525	173.89836746424945	-192.5948348872646	499.95212800929016	175.69929592844883	-203.3645478271873	520.2238002768215	166.8190199029187	-205.5639849675325	542.259452419192	153.3889133194581	-208.1538227195889	483.7342293361269	150.02439358162403	-118.05981097931034	501.11528266086015	175.94201198416124	-157.10790767904638	538.3034581778951	166.1537271057142	-171.53256901721474	523.7990806454035	169.11702415842433	-98.01301782733005	565.6156733970007	168.90821259084362	-126.17238054946729	673.4271456054041	45.70580672359737	106.12945127362272	726.3180721078961	96.76252815503089	81.33691404791038	
